<mxfile host="Electron" agent="Mozilla/5.0 (Macintosh; Intel Mac OS X 10_15_7) AppleWebKit/537.36 (KHTML, like Gecko) draw.io/26.2.2 Chrome/134.0.6998.178 Electron/35.1.2 Safari/537.36" version="26.2.2">
  <diagram name="Page-1" id="oiLiuzNzBiz5QIPDfw4n">
    <mxGraphModel dx="978" dy="751" grid="1" gridSize="10" guides="1" tooltips="1" connect="1" arrows="1" fold="1" page="1" pageScale="1" pageWidth="850" pageHeight="1100" math="0" shadow="0">
      <root>
        <mxCell id="0" />
        <mxCell id="1" parent="0" />
        <mxCell id="aEWzjrlrx0CU07eUlYay-17" style="edgeStyle=orthogonalEdgeStyle;rounded=0;orthogonalLoop=1;jettySize=auto;html=1;" edge="1" parent="1" source="aEWzjrlrx0CU07eUlYay-1" target="aEWzjrlrx0CU07eUlYay-8">
          <mxGeometry relative="1" as="geometry" />
        </mxCell>
        <mxCell id="aEWzjrlrx0CU07eUlYay-1" value="Start" style="ellipse;whiteSpace=wrap;html=1;" vertex="1" parent="1">
          <mxGeometry x="110" y="100" width="120" height="50" as="geometry" />
        </mxCell>
        <mxCell id="aEWzjrlrx0CU07eUlYay-16" style="edgeStyle=orthogonalEdgeStyle;rounded=0;orthogonalLoop=1;jettySize=auto;html=1;" edge="1" parent="1" source="aEWzjrlrx0CU07eUlYay-8" target="aEWzjrlrx0CU07eUlYay-9">
          <mxGeometry relative="1" as="geometry" />
        </mxCell>
        <mxCell id="aEWzjrlrx0CU07eUlYay-8" value="Open random page in dictionary" style="rounded=0;whiteSpace=wrap;html=1;" vertex="1" parent="1">
          <mxGeometry x="110" y="190" width="120" height="60" as="geometry" />
        </mxCell>
        <mxCell id="aEWzjrlrx0CU07eUlYay-14" style="edgeStyle=orthogonalEdgeStyle;rounded=0;orthogonalLoop=1;jettySize=auto;html=1;" edge="1" parent="1" source="aEWzjrlrx0CU07eUlYay-9" target="aEWzjrlrx0CU07eUlYay-13">
          <mxGeometry relative="1" as="geometry" />
        </mxCell>
        <mxCell id="aEWzjrlrx0CU07eUlYay-25" style="edgeStyle=orthogonalEdgeStyle;rounded=0;orthogonalLoop=1;jettySize=auto;html=1;" edge="1" parent="1" source="aEWzjrlrx0CU07eUlYay-9" target="aEWzjrlrx0CU07eUlYay-18">
          <mxGeometry relative="1" as="geometry" />
        </mxCell>
        <mxCell id="aEWzjrlrx0CU07eUlYay-9" value="If current_word = target_word" style="rhombus;whiteSpace=wrap;html=1;" vertex="1" parent="1">
          <mxGeometry x="110" y="380" width="120" height="90" as="geometry" />
        </mxCell>
        <mxCell id="aEWzjrlrx0CU07eUlYay-29" style="edgeStyle=orthogonalEdgeStyle;rounded=0;orthogonalLoop=1;jettySize=auto;html=1;" edge="1" parent="1" source="aEWzjrlrx0CU07eUlYay-13" target="aEWzjrlrx0CU07eUlYay-27">
          <mxGeometry relative="1" as="geometry" />
        </mxCell>
        <mxCell id="aEWzjrlrx0CU07eUlYay-13" value="Output &quot;Word found" style="shape=parallelogram;perimeter=parallelogramPerimeter;whiteSpace=wrap;html=1;fixedSize=1;" vertex="1" parent="1">
          <mxGeometry x="105" y="520" width="130" height="60" as="geometry" />
        </mxCell>
        <mxCell id="aEWzjrlrx0CU07eUlYay-15" value="yes" style="text;html=1;align=center;verticalAlign=middle;resizable=0;points=[];autosize=1;strokeColor=none;fillColor=none;" vertex="1" parent="1">
          <mxGeometry x="130" y="470" width="40" height="30" as="geometry" />
        </mxCell>
        <mxCell id="aEWzjrlrx0CU07eUlYay-21" style="edgeStyle=orthogonalEdgeStyle;rounded=0;orthogonalLoop=1;jettySize=auto;html=1;" edge="1" parent="1" source="aEWzjrlrx0CU07eUlYay-18" target="aEWzjrlrx0CU07eUlYay-20">
          <mxGeometry relative="1" as="geometry" />
        </mxCell>
        <mxCell id="aEWzjrlrx0CU07eUlYay-22" style="edgeStyle=orthogonalEdgeStyle;rounded=0;orthogonalLoop=1;jettySize=auto;html=1;" edge="1" parent="1" source="aEWzjrlrx0CU07eUlYay-18" target="aEWzjrlrx0CU07eUlYay-19">
          <mxGeometry relative="1" as="geometry" />
        </mxCell>
        <mxCell id="aEWzjrlrx0CU07eUlYay-18" value="If current_word is alphabetically &amp;gt; target_word" style="rhombus;whiteSpace=wrap;html=1;" vertex="1" parent="1">
          <mxGeometry x="310" y="390" width="130" height="110" as="geometry" />
        </mxCell>
        <mxCell id="aEWzjrlrx0CU07eUlYay-31" style="edgeStyle=orthogonalEdgeStyle;rounded=0;orthogonalLoop=1;jettySize=auto;html=1;" edge="1" parent="1" source="aEWzjrlrx0CU07eUlYay-19">
          <mxGeometry relative="1" as="geometry">
            <mxPoint x="240" y="330" as="targetPoint" />
          </mxGeometry>
        </mxCell>
        <mxCell id="aEWzjrlrx0CU07eUlYay-19" value="Flip Forward" style="rounded=0;whiteSpace=wrap;html=1;" vertex="1" parent="1">
          <mxGeometry x="450" y="240" width="120" height="60" as="geometry" />
        </mxCell>
        <mxCell id="aEWzjrlrx0CU07eUlYay-30" style="edgeStyle=orthogonalEdgeStyle;rounded=0;orthogonalLoop=1;jettySize=auto;html=1;" edge="1" parent="1" source="aEWzjrlrx0CU07eUlYay-20">
          <mxGeometry relative="1" as="geometry">
            <mxPoint x="170" y="330" as="targetPoint" />
          </mxGeometry>
        </mxCell>
        <mxCell id="aEWzjrlrx0CU07eUlYay-20" value="Flip Backward" style="rounded=0;whiteSpace=wrap;html=1;" vertex="1" parent="1">
          <mxGeometry x="315" y="300" width="120" height="60" as="geometry" />
        </mxCell>
        <mxCell id="aEWzjrlrx0CU07eUlYay-23" value="yes" style="text;html=1;align=center;verticalAlign=middle;resizable=0;points=[];autosize=1;strokeColor=none;fillColor=none;" vertex="1" parent="1">
          <mxGeometry x="330" y="360" width="40" height="30" as="geometry" />
        </mxCell>
        <mxCell id="aEWzjrlrx0CU07eUlYay-24" value="no" style="text;html=1;align=center;verticalAlign=middle;resizable=0;points=[];autosize=1;strokeColor=none;fillColor=none;" vertex="1" parent="1">
          <mxGeometry x="470" y="320" width="40" height="30" as="geometry" />
        </mxCell>
        <mxCell id="aEWzjrlrx0CU07eUlYay-26" value="no" style="text;html=1;align=center;verticalAlign=middle;resizable=0;points=[];autosize=1;strokeColor=none;fillColor=none;" vertex="1" parent="1">
          <mxGeometry x="270" y="410" width="40" height="30" as="geometry" />
        </mxCell>
        <mxCell id="aEWzjrlrx0CU07eUlYay-27" value="Stop" style="ellipse;whiteSpace=wrap;html=1;" vertex="1" parent="1">
          <mxGeometry x="110" y="610" width="120" height="50" as="geometry" />
        </mxCell>
      </root>
    </mxGraphModel>
  </diagram>
</mxfile>
